<?xml version="1.0" standalone="no"?>
<!DOCTYPE svg PUBLIC "-//W3C//DTD SVG 20010904//EN"
 "http://www.w3.org/TR/2001/REC-SVG-20010904/DTD/svg10.dtd">
<svg version="1.0" xmlns="http://www.w3.org/2000/svg"
 width="712.000000pt" height="712.000000pt" viewBox="0 0 712.000000 712.000000"
 preserveAspectRatio="xMidYMid meet">
<metadata>
Created by potrace 1.14, written by Peter Selinger 2001-2017
</metadata>
<g transform="translate(0.000000,712.000000) scale(0.100000,-0.100000)"
fill="#000000" stroke="none">
<path d="M3635 7113 c-44 -9 -100 -59 -127 -112 -94 -185 89 -373 281 -290 98
42 148 164 109 267 -39 105 -146 160 -263 135z"/>
<path d="M2886 7010 c-74 -29 -138 -99 -153 -167 -19 -84 2 -164 58 -228 156
-177 450 -45 426 191 -16 161 -180 261 -331 204z"/>
<path d="M4285 7007 c-30 -14 -94 -78 -96 -97 -2 -10 -5 -24 -9 -37 -7 -24 5
-83 22 -115 29 -51 73 -80 129 -86 65 -6 111 12 153 59 68 79 56 190 -28 254
-42 32 -125 43 -171 22z"/>
<path d="M4839 6780 c-68 -35 -93 -109 -61 -180 28 -66 107 -92 180 -60 95 43
99 188 7 237 -39 21 -89 22 -126 3z"/>
<path d="M2170 6683 c-237 -82 -246 -413 -15 -513 64 -28 169 -24 231 8 139
71 190 250 109 387 -65 111 -202 161 -325 118z"/>
<path d="M5315 6511 c-50 -15 -84 -62 -80 -113 6 -87 116 -128 181 -67 78 74
1 210 -101 180z"/>
<path d="M4238 6340 c-50 -39 -43 -116 12 -145 86 -44 169 70 101 138 -28 28
-82 32 -113 7z"/>
<path d="M3890 6343 c-67 -27 -84 -116 -31 -169 22 -23 32 -25 74 -21 51 4 74
25 89 76 20 67 -65 140 -132 114z"/>
<path d="M4612 6303 c-25 -5 -47 -34 -57 -75 -6 -22 -1 -33 23 -58 40 -39 83
-40 117 -4 60 64 5 155 -83 137z"/>
<path d="M3503 6259 c-34 -13 -63 -55 -65 -92 -3 -83 80 -138 156 -102 38 18
56 51 56 102 0 28 -8 43 -36 69 -36 34 -65 40 -111 23z"/>
<path d="M4937 6194 c-50 -26 -62 -84 -27 -122 12 -12 24 -22 28 -23 39 -5 62
-4 62 3 0 4 6 8 14 8 19 0 40 54 32 85 -6 23 -45 57 -71 61 -6 1 -23 -5 -38
-12z"/>
<path d="M5675 6188 c-54 -30 -71 -75 -45 -123 43 -79 165 -44 162 47 -1 55
-72 101 -117 76z"/>
<path d="M1580 6151 c-42 -10 -100 -35 -100 -43 0 -4 -5 -8 -10 -8 -29 0 -104
-99 -121 -160 -69 -248 183 -464 415 -354 187 88 229 347 79 485 -36 33 -100
69 -133 76 -33 7 -106 9 -130 4z"/>
<path d="M3145 6101 c-76 -24 -105 -108 -61 -176 59 -91 206 -45 206 65 0 77
-74 135 -145 111z"/>
<path d="M5228 6042 c-68 -41 -38 -142 42 -144 25 -1 40 6 57 26 29 34 29 68
1 99 -29 32 -66 39 -100 19z"/>
<path d="M2800 5868 c-99 -27 -115 -165 -25 -224 37 -24 118 -15 146 17 41 47
50 99 25 148 -28 53 -83 75 -146 59z"/>
<path d="M5491 5833 c-32 -32 -33 -55 -3 -100 20 -32 75 -31 108 2 19 19 23
31 19 57 -7 41 -22 56 -62 64 -27 5 -37 1 -62 -23z"/>
<path d="M5959 5845 c-77 -41 -35 -153 50 -138 57 10 80 84 39 123 -12 11 -24
20 -27 21 -3 0 -13 2 -22 4 -8 1 -26 -3 -40 -10z"/>
<path d="M5736 5609 c-53 -42 -14 -129 52 -114 30 6 59 39 56 63 -1 6 -2 19
-3 27 -1 14 -49 45 -69 45 -5 0 -21 -9 -36 -21z"/>
<path d="M2482 5555 c-43 -19 -69 -51 -79 -95 -32 -154 173 -228 250 -90 60
107 -57 233 -171 185z"/>
<path d="M6179 5489 c-23 -23 -24 -57 -3 -87 22 -31 67 -29 93 4 25 32 26 42
2 73 -23 30 -67 35 -92 10z"/>
<path d="M1107 5408 c-151 -32 -254 -154 -262 -308 -6 -127 75 -256 192 -306
173 -73 368 10 434 185 27 72 22 183 -11 253 -60 128 -215 206 -353 176z"/>
<path d="M5936 5368 c-46 -34 -30 -94 30 -112 47 -14 87 55 58 99 -20 31 -55
36 -88 13z"/>
<path d="M2221 5173 c-70 -36 -99 -118 -66 -187 52 -108 210 -107 259 2 56
123 -73 246 -193 185z"/>
<path d="M6360 5138 c-33 -30 -26 -74 16 -96 47 -25 105 48 69 88 -24 27 -61
30 -85 8z"/>
<path d="M6094 5106 c-29 -20 -30 -71 -2 -90 30 -21 61 -20 81 2 47 52 -21
128 -79 88z"/>
<path d="M6218 4838 c-43 -35 -19 -101 35 -96 44 4 66 48 43 84 -18 26 -53 32
-78 12z"/>
<path d="M6520 4792 c-58 -18 -50 -100 11 -109 24 -4 59 30 59 58 0 33 -38 61
-70 51z"/>
<path d="M2045 4748 c-54 -20 -100 -79 -108 -141 -7 -50 31 -126 75 -152 50
-29 134 -27 181 5 97 67 89 225 -15 281 -28 15 -100 19 -133 7z"/>
<path d="M845 4524 c-205 -46 -323 -252 -259 -449 60 -182 258 -281 439 -219
295 100 320 502 40 639 -67 33 -153 44 -220 29z"/>
<path d="M1955 4247 c-135 -43 -176 -206 -78 -309 65 -68 195 -66 260 4 29 31
53 90 53 131 0 111 -130 208 -235 174z"/>
<path d="M1941 3688 c-68 -29 -108 -85 -117 -167 -19 -177 194 -281 334 -162
12 11 22 24 22 30 0 6 4 11 9 11 16 0 34 89 27 137 -17 127 -155 202 -275 151z"/>
<path d="M868 3558 c-114 -15 -221 -87 -280 -189 -81 -138 -54 -329 63 -450
105 -108 284 -139 424 -73 70 33 144 105 176 172 32 65 32 65 33 172 1 86 -2
101 -28 154 -36 74 -83 127 -144 162 -26 15 -49 27 -52 27 -3 -1 -13 3 -22 8
-9 5 -34 11 -55 14 -21 3 -42 7 -48 9 -5 1 -36 -1 -67 -6z"/>
<path d="M2110 3138 c-91 -26 -150 -102 -152 -195 -2 -85 42 -157 116 -192
135 -63 296 33 298 178 0 45 -22 121 -35 121 -6 0 -7 3 -4 6 8 8 -59 62 -89
74 -38 15 -98 19 -134 8z"/>
<path d="M2400 2612 c-8 -3 -26 -9 -40 -14 -14 -5 -27 -9 -28 -8 -2 1 -19 -15
-37 -35 -138 -150 -40 -375 163 -377 79 0 157 57 193 140 22 50 23 76 8 136
-14 55 -59 111 -112 138 -41 20 -116 31 -147 20z"/>
<path d="M1148 2584 c-2 -2 -19 -6 -38 -9 -48 -8 -129 -54 -170 -95 -50 -51
-80 -88 -80 -100 0 -6 -6 -21 -14 -33 -8 -12 -20 -49 -26 -81 -37 -181 57
-360 231 -440 70 -33 79 -34 169 -32 85 2 103 6 162 35 81 40 150 107 186 180
32 68 33 69 39 159 3 44 0 93 -7 120 -39 143 -160 259 -304 292 -40 9 -141 12
-148 4z"/>
<path d="M2820 2163 c-213 -54 -242 -337 -45 -439 17 -9 57 -17 90 -19 100 -7
184 45 225 137 79 179 -81 370 -270 321z"/>
<path d="M3380 1840 c-179 -51 -245 -267 -125 -408 46 -54 115 -85 188 -85 73
0 130 25 184 80 146 150 42 411 -167 418 -30 2 -66 -1 -80 -5z"/>
<path d="M1745 1709 c-189 -46 -323 -213 -327 -407 -6 -319 334 -527 622 -380
61 32 142 114 174 176 113 223 25 478 -200 584 -52 24 -81 31 -147 34 -45 2
-100 -1 -122 -7z"/>
<path d="M5020 1325 c-91 -25 -162 -66 -226 -129 -52 -51 -115 -144 -124 -181
-1 -5 -4 -14 -6 -20 -21 -67 -26 -199 -11 -263 25 -99 65 -170 137 -243 97
-96 191 -138 325 -144 104 -5 164 7 252 52 224 111 331 383 243 615 -35 91
-91 168 -172 232 -27 22 -135 74 -169 82 -58 14 -196 13 -249 -1z"/>
<path d="M2788 1114 c-2 -1 -23 -3 -48 -5 -155 -9 -335 -150 -375 -295 -5 -16
-10 -36 -13 -44 -3 -8 -5 -58 -5 -110 0 -112 21 -177 84 -263 129 -174 356
-228 554 -132 185 90 283 293 240 500 -24 119 -125 245 -240 300 -57 27 -187
60 -197 49z"/>
<path d="M3819 923 c-84 -28 -184 -95 -220 -147 -13 -20 -27 -36 -31 -36 -3 0
-21 -35 -38 -77 -54 -130 -53 -263 3 -388 28 -63 30 -66 98 -134 79 -79 111
-99 199 -125 77 -23 218 -20 290 7 61 22 140 71 183 112 60 57 113 162 132
260 6 31 7 128 1 155 -28 135 -105 251 -211 322 -74 49 -139 68 -251 73 -66 3
-95 -1 -155 -22z"/>
</g>
</svg>
